<?xml version="1.0" encoding="UTF-8"?>
<svg xmlns="http://www.w3.org/2000/svg" xmlns:xlink="http://www.w3.org/1999/xlink" width="37.16pt" height="50pt" viewBox="0 0 37.16 50" version="1.1">
<g id="surface1">
<path style=" stroke:none;fill-rule:nonzero;fill:rgb(100%,39.988708%,39.988708%);fill-opacity:1;" d="M 18.570313 30.453125 C 19.082031 30.453125 19.574219 30.644531 19.949219 30.996094 L 33.113281 43.324219 L 33.113281 7.410156 C 33.195313 6.503906 32.882813 5.609375 32.257813 4.949219 C 31.328125 4.269531 30.1875 3.949219 29.042969 4.042969 L 7.097656 4.042969 C 6.332031 3.984375 5.578125 4.253906 5.023438 4.78125 C 4.351563 5.675781 4.003906 6.773438 4.039063 7.890625 L 4.039063 43.3125 L 17.199219 30.980469 C 17.578125 30.636719 18.070313 30.445313 18.582031 30.453125 Z M 35.132813 50 C 34.617188 50 34.125 49.804688 33.753906 49.453125 L 18.578125 35.234375 L 3.402344 49.453125 C 2.589844 50.214844 1.3125 50.175781 0.550781 49.363281 C 0.199219 48.988281 0.00390625 48.496094 0.00390625 47.980469 L 0.00390625 8.007813 C -0.0703125 5.820313 0.675781 3.683594 2.09375 2.015625 C 3.410156 0.683594 5.222656 -0.0390625 7.09375 0.0273438 L 28.792969 0.0273438 C 31.023438 -0.144531 33.234375 0.546875 34.96875 1.960938 C 36.453125 3.375 37.253906 5.363281 37.15625 7.410156 L 37.15625 47.980469 C 37.15625 49.09375 36.25 50 35.136719 50 "/>
</g>
</svg>
