<?xml version="1.0" encoding="UTF-8"?>
<svg xmlns="http://www.w3.org/2000/svg" xmlns:xlink="http://www.w3.org/1999/xlink" width="47.59pt" height="50pt" viewBox="0 0 47.59 50" version="1.1">
<defs>
<clipPath id="clip1">
  <path d="M 0 0 L 47.589844 0 L 47.589844 50 L 0 50 Z M 0 0 "/>
</clipPath>
</defs>
<g id="surface1">
<g clip-path="url(#clip1)" clip-rule="nonzero">
<path style=" stroke:none;fill-rule:nonzero;fill:rgb(100%,39.988708%,39.988708%);fill-opacity:1;" d="M 35.519531 25.296875 C 36.785156 25.296875 37.816406 26.324219 37.816406 27.59375 C 37.816406 28.859375 36.785156 29.890625 35.519531 29.890625 C 34.25 29.890625 33.21875 28.859375 33.21875 27.59375 C 33.21875 26.324219 34.25 25.296875 35.519531 25.296875 M 23.746094 25.296875 C 25.015625 25.296875 26.042969 26.324219 26.042969 27.59375 C 26.042969 28.859375 25.015625 29.890625 23.746094 29.890625 C 22.476563 29.890625 21.449219 28.859375 21.449219 27.59375 C 21.449219 26.324219 22.476563 25.296875 23.746094 25.296875 M 35.519531 35.660156 C 36.785156 35.660156 37.816406 36.691406 37.816406 37.957031 C 37.816406 39.226563 36.785156 40.257813 35.519531 40.257813 C 34.25 40.257813 33.21875 39.226563 33.21875 37.957031 C 33.21875 36.691406 34.25 35.660156 35.519531 35.660156 M 11.984375 35.660156 C 13.253906 35.660156 14.28125 36.691406 14.28125 37.957031 C 14.28125 39.226563 13.253906 40.257813 11.984375 40.257813 C 10.714844 40.257813 9.6875 39.226563 9.6875 37.957031 C 9.6875 36.691406 10.714844 35.660156 11.984375 35.660156 M 23.746094 35.660156 C 25.015625 35.660156 26.042969 36.691406 26.042969 37.957031 C 26.042969 39.226563 25.015625 40.257813 23.746094 40.257813 C 22.476563 40.257813 21.449219 39.226563 21.449219 37.957031 C 21.449219 36.691406 22.476563 35.660156 23.746094 35.660156 M 43.808594 43.699219 C 43.984375 44.90625 43.144531 46.027344 41.9375 46.203125 C 41.808594 46.222656 41.679688 46.230469 41.550781 46.226563 L 6.207031 46.226563 C 5.636719 46.257813 5.070313 46.058594 4.648438 45.671875 C 4.019531 44.84375 3.726563 43.808594 3.828125 42.769531 L 3.828125 19.988281 L 43.832031 19.988281 C 43.824219 28.519531 43.824219 40.6875 43.8125 43.699219 Z M 3.804688 11.359375 C 3.804688 9.390625 4.5625 8.542969 6.339844 8.53125 L 9.949219 8.53125 L 9.949219 11.304688 C 9.949219 12.347656 10.792969 13.191406 11.832031 13.191406 C 12.875 13.191406 13.71875 12.347656 13.71875 11.304688 L 13.71875 8.53125 L 33.617188 8.53125 L 33.617188 11.304688 C 33.582031 12.34375 34.398438 13.214844 35.441406 13.25 C 36.480469 13.28125 37.351563 12.464844 37.386719 11.425781 C 37.386719 11.382813 37.386719 11.34375 37.386719 11.304688 L 37.386719 8.53125 L 41.171875 8.53125 C 41.90625 8.492188 42.621094 8.75 43.15625 9.25 C 43.601563 9.816406 43.835938 10.515625 43.816406 11.234375 L 43.816406 16.226563 L 3.816406 16.226563 L 3.816406 11.359375 Z M 47.582031 11.40625 C 47.640625 9.703125 47.0625 8.039063 45.960938 6.734375 C 44.730469 5.445313 43.015625 4.730469 41.234375 4.761719 L 37.382813 4.761719 L 37.382813 1.886719 C 37.382813 0.84375 36.539063 0 35.496094 0 C 34.457031 0 33.613281 0.84375 33.613281 1.886719 L 33.613281 4.757813 L 13.714844 4.757813 L 13.714844 1.886719 C 13.714844 0.84375 12.871094 0 11.828125 0 C 10.789063 0 9.945313 0.84375 9.945313 1.886719 L 9.945313 4.757813 L 6.3125 4.757813 C 3.007813 4.582031 0.183594 7.117188 0.0078125 10.425781 C -0.0078125 10.734375 0 11.046875 0.03125 11.355469 L 0.03125 42.765625 C -0.105469 44.808594 0.589844 46.820313 1.960938 48.339844 C 3.085938 49.441406 4.609375 50.039063 6.183594 50 L 41.519531 50 C 44.824219 50.023438 47.527344 47.363281 47.554688 44.058594 C 47.554688 43.949219 47.554688 43.839844 47.546875 43.730469 C 47.605469 39.074219 47.582031 12.703125 47.582031 11.40625 "/>
</g>
</g>
</svg>
