<?xml version="1.0" encoding="UTF-8"?>
<svg xmlns="http://www.w3.org/2000/svg" xmlns:xlink="http://www.w3.org/1999/xlink" width="50pt" height="39.31pt" viewBox="0 0 50 39.31" version="1.1">
<defs>
<clipPath id="clip1">
  <path d="M 0 0 L 50 0 L 50 39.308594 L 0 39.308594 Z M 0 0 "/>
</clipPath>
</defs>
<g id="surface1">
<g clip-path="url(#clip1)" clip-rule="nonzero">
<path style=" stroke:none;fill-rule:nonzero;fill:rgb(100%,39.988708%,39.988708%);fill-opacity:1;" d="M 31.785156 7.988281 C 31.789063 5.652344 33.691406 3.75 36.027344 3.746094 C 38.367188 3.746094 40.269531 5.648438 40.269531 7.988281 C 40.269531 10.324219 38.367188 12.226563 36.027344 12.226563 C 33.691406 12.226563 31.785156 10.324219 31.785156 7.988281 M 36.027344 15.472656 C 40.152344 15.472656 43.511719 12.117188 43.511719 7.988281 C 43.511719 3.863281 40.152344 0.503906 36.027344 0.503906 C 31.902344 0.503906 28.542969 3.863281 28.542969 7.988281 C 28.546875 12.113281 31.90625 15.46875 36.027344 15.472656 M 46.75 28.535156 L 35.015625 28.535156 C 35.101563 26.347656 34.335938 24.257813 32.859375 22.644531 C 31.371094 21.019531 29.339844 20.074219 27.140625 19.976563 C 27.042969 19.972656 26.949219 19.96875 26.847656 19.96875 C 27.351563 19.554688 27.976563 19.328125 28.632813 19.320313 C 29.214844 19.320313 30.988281 19.320313 33.164063 19.300781 C 36.578125 19.28125 41.023438 19.261719 43.265625 19.261719 C 44.210938 19.277344 45.09375 19.660156 45.753906 20.339844 C 46.414063 21.019531 46.773438 21.914063 46.757813 22.863281 C 46.757813 22.929688 46.753906 22.996094 46.75 23.070313 Z M 3.238281 29.105469 C 3.222656 27.378906 3.878906 25.746094 5.082031 24.503906 C 5.8125 23.722656 6.839844 23.28125 7.914063 23.28125 C 7.941406 23.28125 7.972656 23.28125 8 23.28125 C 8.445313 23.269531 9.429688 23.269531 10.789063 23.265625 C 11.75 23.265625 12.878906 23.261719 14.097656 23.257813 L 14.542969 23.253906 C 18.789063 23.234375 24.074219 23.210938 26.824219 23.210938 L 26.828125 23.210938 C 29.5625 23.210938 31.789063 25.433594 31.789063 28.167969 C 31.789063 28.300781 31.785156 28.429688 31.773438 28.570313 L 31.773438 36.070313 L 3.238281 36.070313 Z M 48.222656 18.210938 C 47.003906 16.882813 45.339844 16.105469 43.535156 16.027344 C 43.445313 16.023438 43.355469 16.019531 43.265625 16.019531 C 41.121094 16.019531 37.136719 16.039063 33.152344 16.058594 L 31.859375 16.0625 C 30.300781 16.070313 29.097656 16.078125 28.660156 16.078125 L 28.542969 16.078125 C 26.050781 16.15625 23.824219 17.683594 22.851563 19.976563 C 20.875 19.976563 18.636719 19.992188 16.472656 20.003906 L 14.074219 20.015625 C 11.175781 20.03125 8.78125 20.042969 8.035156 20.042969 C 8 20.042969 7.964844 20.042969 7.925781 20.042969 C 6.011719 20.042969 4.152344 20.824219 2.8125 22.195313 C 0.988281 24.050781 -0.0078125 26.507813 0 29.109375 L 0 37.6875 C 0 38.582031 0.726563 39.308594 1.621094 39.308594 L 33.394531 39.308594 C 34.289063 39.308594 35.015625 38.582031 35.015625 37.6875 L 35.015625 31.777344 L 48.371094 31.777344 C 49.265625 31.777344 49.992188 31.050781 49.992188 30.15625 L 49.992188 23.070313 C 50.074219 21.269531 49.441406 19.542969 48.222656 18.210938 M 11.574219 9.167969 C 11.574219 5.9375 14.179688 3.300781 17.398438 3.246094 L 17.496094 3.246094 C 20.761719 3.246094 23.417969 5.902344 23.417969 9.167969 C 23.417969 12.433594 20.761719 15.089844 17.496094 15.089844 C 14.230469 15.089844 11.574219 12.433594 11.574219 9.167969 M 17.496094 18.332031 C 22.550781 18.332031 26.660156 14.21875 26.660156 9.167969 C 26.660156 4.113281 22.550781 0 17.496094 0 C 12.441406 0 8.332031 4.113281 8.332031 9.167969 C 8.335938 14.214844 12.449219 18.324219 17.496094 18.332031 "/>
</g>
</g>
</svg>
