<?xml version="1.0" encoding="UTF-8"?>
<svg xmlns="http://www.w3.org/2000/svg" xmlns:xlink="http://www.w3.org/1999/xlink" width="46.99pt" height="50pt" viewBox="0 0 46.99 50" version="1.1">
<defs>
<clipPath id="clip1">
  <path d="M 0 0 L 46.988281 0 L 46.988281 50 L 0 50 Z M 0 0 "/>
</clipPath>
</defs>
<g id="surface1">
<g clip-path="url(#clip1)" clip-rule="nonzero">
<path style=" stroke:none;fill-rule:nonzero;fill:rgb(100%,39.988708%,39.988708%);fill-opacity:1;" d="M 3.898438 36.734375 L 9.25 36.734375 L 30.261719 15.714844 L 24.871094 10.324219 L 3.890625 31.382813 Z M 27.539063 7.652344 L 32.933594 13.046875 L 36.03125 9.949219 L 30.628906 4.546875 Z M 0.117188 38.625 L 0.117188 30.605469 C 0.117188 30.105469 0.316406 29.625 0.667969 29.273438 L 29.289063 0.554688 C 29.644531 0.199219 30.121094 0 30.625 0 C 31.125 0 31.605469 0.199219 31.957031 0.550781 L 40.03125 8.625 C 40.769531 9.363281 40.769531 10.554688 40.03125 11.292969 L 11.359375 39.964844 C 11.003906 40.316406 10.523438 40.515625 10.023438 40.515625 L 2.003906 40.515625 C 0.960938 40.511719 0.121094 39.664063 0.117188 38.625 M 45.09375 46.226563 L 45.117188 46.226563 C 46.15625 46.230469 46.996094 47.082031 46.992188 48.125 C 46.984375 49.167969 46.136719 50.007813 45.09375 50 L 1.875 50 C 0.832031 49.992188 -0.0078125 49.144531 0 48.101563 C 0.0078125 47.058594 0.855469 46.21875 1.898438 46.226563 L 45.09375 46.226563 "/>
</g>
</g>
</svg>
