<?xml version="1.0" encoding="UTF-8"?>
<svg xmlns="http://www.w3.org/2000/svg" xmlns:xlink="http://www.w3.org/1999/xlink" width="45.98pt" height="50pt" viewBox="0 0 45.98 50" version="1.1">
<g id="surface1">
<path style=" stroke:none;fill-rule:nonzero;fill:rgb(100%,39.988708%,39.988708%);fill-opacity:1;" d="M 22.988281 46.566406 C 18.398438 46.566406 3.429688 45.765625 3.429688 35.457031 C 3.429688 31.375 4.585938 30.210938 6.5 28.285156 C 8.707031 26.253906 10.417969 23.738281 11.5 20.941406 C 13.339844 16.167969 16.238281 14.558594 22.984375 14.558594 C 29.730469 14.558594 32.628906 16.167969 34.464844 20.941406 C 35.546875 23.738281 37.257813 26.253906 39.464844 28.285156 C 41.378906 30.210938 42.535156 31.375 42.535156 35.457031 C 42.542969 45.765625 27.574219 46.566406 22.988281 46.566406 M 7.070313 18.078125 C 7.65625 16.300781 8.6875 14.707031 10.070313 13.441406 C 11.863281 11.792969 14.0625 10.644531 16.441406 10.109375 C 18.589844 9.625 20.785156 9.398438 22.988281 9.441406 C 25.1875 9.398438 27.386719 9.625 29.53125 10.109375 C 31.910156 10.644531 34.109375 11.792969 35.90625 13.441406 C 37.285156 14.707031 38.320313 16.300781 38.90625 18.078125 C 39.355469 19.53125 39.566406 21.050781 39.535156 22.578125 C 39.535156 23.265625 39.511719 23.910156 39.488281 24.527344 C 38.371094 23.183594 37.484375 21.65625 36.871094 20.019531 C 34.539063 13.96875 30.390625 11.984375 22.984375 11.984375 C 15.578125 11.984375 11.433594 13.96875 9.105469 20.015625 C 8.492188 21.65625 7.609375 23.183594 6.488281 24.527344 C 6.46875 23.910156 6.4375 23.265625 6.441406 22.574219 C 6.40625 21.050781 6.617188 19.53125 7.066406 18.078125 Z M 16.070313 7.554688 L 16.058594 7.554688 C 15.945313 7.382813 15.84375 7.203125 15.757813 7.015625 C 15.847656 7.203125 15.953125 7.382813 16.070313 7.554688 M 19.625 3.433594 C 20.570313 3.433594 21.339844 4.203125 21.339844 5.152344 C 21.339844 6.097656 20.570313 6.867188 19.621094 6.867188 C 18.671875 6.867188 17.90625 6.097656 17.90625 5.148438 C 17.90625 4.203125 18.675781 3.433594 19.625 3.433594 M 26.347656 3.433594 C 27.296875 3.433594 28.066406 4.203125 28.066406 5.148438 C 28.066406 6.097656 27.296875 6.867188 26.347656 6.867188 C 25.402344 6.867188 24.632813 6.097656 24.632813 5.148438 C 24.632813 4.203125 25.402344 3.433594 26.347656 3.433594 M 30.214844 7.015625 C 30.128906 7.203125 30.027344 7.382813 29.914063 7.558594 L 29.902344 7.558594 C 30.019531 7.382813 30.121094 7.203125 30.214844 7.015625 M 43.304688 27.332031 C 43.296875 27.265625 43.292969 27.199219 43.28125 27.132813 L 43.394531 27.082031 L 43.117188 26.632813 C 43.066406 26.519531 43.003906 26.410156 42.933594 26.3125 L 42.933594 26.273438 C 42.90625 26.0625 42.898438 25.851563 42.902344 25.640625 C 42.902344 25.304688 42.914063 24.910156 42.933594 24.464844 C 42.953125 23.898438 42.980469 23.261719 42.980469 22.566406 C 43.011719 20.679688 42.742188 18.800781 42.179688 17 C 41.410156 14.679688 40.066406 12.59375 38.265625 10.9375 C 36.253906 9.066406 33.816406 7.710938 31.167969 6.984375 C 32.179688 4.324219 30.839844 1.347656 28.179688 0.335938 C 27.597656 0.113281 26.976563 0 26.347656 0 C 25.109375 0 23.914063 0.453125 22.988281 1.269531 C 22.058594 0.453125 20.863281 0 19.625 0 C 16.78125 0.0078125 14.480469 2.308594 14.472656 5.148438 C 14.472656 5.78125 14.589844 6.402344 14.8125 6.992188 C 12.164063 7.71875 9.730469 9.074219 7.714844 10.941406 C 5.917969 12.597656 4.574219 14.6875 3.804688 17.007813 C 3.242188 18.808594 2.972656 20.6875 3.007813 22.574219 C 3.007813 23.265625 3.03125 23.90625 3.050781 24.476563 C 3.070313 24.914063 3.082031 25.308594 3.082031 25.644531 C 3.082031 25.980469 3.0625 26.214844 3.0625 26.296875 C 2.84375 26.601563 2.707031 26.960938 2.675781 27.335938 C 1.0625 29.195313 0 31.351563 0 35.457031 C 0 44.5625 8.59375 50 22.988281 50 C 37.382813 50 45.976563 44.5625 45.976563 35.457031 C 45.976563 31.351563 44.914063 29.199219 43.304688 27.332031 "/>
</g>
</svg>
