<?xml version="1.0" encoding="UTF-8"?>
<svg xmlns="http://www.w3.org/2000/svg" xmlns:xlink="http://www.w3.org/1999/xlink" width="48.52pt" height="50pt" viewBox="0 0 48.52 50" version="1.1">
<defs>
<clipPath id="clip1">
  <path d="M 0 0 L 48.519531 0 L 48.519531 50 L 0 50 Z M 0 0 "/>
</clipPath>
</defs>
<g id="surface1">
<g clip-path="url(#clip1)" clip-rule="nonzero">
<path style=" stroke:none;fill-rule:nonzero;fill:rgb(100%,39.988708%,39.988708%);fill-opacity:1;" d="M 25.441406 27.40625 L 31.152344 23.980469 C 32.195313 23.328125 32.535156 21.96875 31.921875 20.902344 C 31.289063 19.808594 29.894531 19.433594 28.800781 20.0625 L 26.546875 21.410156 L 26.546875 18.59375 C 26.546875 18.546875 26.546875 18.5 26.546875 18.457031 C 26.507813 17.195313 25.457031 16.203125 24.195313 16.238281 C 22.933594 16.277344 21.941406 17.332031 21.980469 18.59375 L 21.980469 25.449219 C 21.980469 26.710938 23.003906 27.730469 24.265625 27.730469 C 24.679688 27.730469 25.085938 27.617188 25.441406 27.40625 M 44.25 49.980469 C 44.726563 49.980469 45.191406 49.832031 45.578125 49.554688 C 46.605469 48.824219 46.839844 47.394531 46.105469 46.371094 L 43.253906 42.371094 C 42.515625 41.347656 41.089844 41.109375 40.0625 41.84375 C 39.035156 42.582031 38.800781 44.011719 39.535156 45.035156 L 42.390625 49.035156 C 42.820313 49.636719 43.511719 49.992188 44.25 49.992188 Z M 6.132813 49.054688 L 8.988281 45.054688 C 9.722656 44.027344 9.488281 42.601563 8.460938 41.863281 C 7.433594 41.128906 6.007813 41.363281 5.269531 42.390625 L 2.417969 46.390625 C 2.140625 46.777344 1.988281 47.238281 1.988281 47.71875 C 1.988281 48.976563 3.011719 50 4.273438 50 C 5.007813 50.003906 5.703125 49.652344 6.132813 49.054688 M 4.175781 10.386719 C 5.820313 7.953125 7.914063 5.859375 10.347656 4.214844 C 10.386719 4.191406 10.421875 4.164063 10.457031 4.140625 C 11.480469 3.40625 11.714844 1.976563 10.980469 0.953125 C 10.242188 -0.0742188 8.816406 -0.308594 7.792969 0.429688 C 4.875 2.402344 2.363281 4.914063 0.390625 7.832031 C 0.136719 8.207031 0 8.652344 0 9.109375 C 0 10.371094 1.019531 11.394531 2.28125 11.394531 C 3.042969 11.394531 3.753906 11.015625 4.175781 10.386719 M 46.234375 11.394531 C 46.691406 11.394531 47.136719 11.257813 47.515625 11.003906 C 48.558594 10.296875 48.835938 8.878906 48.128906 7.832031 C 46.15625 4.917969 43.644531 2.40625 40.730469 0.433594 C 39.707031 -0.214844 38.355469 0.046875 37.648438 1.027344 C 36.914063 2.054688 37.148438 3.480469 38.171875 4.21875 C 40.605469 5.863281 42.699219 7.957031 44.34375 10.390625 C 44.769531 11.019531 45.480469 11.394531 46.238281 11.394531 Z M 24.265625 7.160156 C 14.800781 7.160156 7.132813 14.832031 7.132813 24.292969 C 7.132813 33.753906 14.800781 41.425781 24.265625 41.425781 C 33.726563 41.425781 41.394531 33.753906 41.394531 24.292969 C 41.382813 14.839844 33.71875 7.179688 24.265625 7.167969 Z M 24.265625 45.996094 C 12.277344 45.996094 2.5625 36.28125 2.558594 24.292969 C 2.558594 12.308594 12.273438 2.59375 24.261719 2.589844 C 36.246094 2.589844 45.964844 12.304688 45.964844 24.289063 L 45.964844 24.292969 C 45.953125 36.273438 36.242188 45.984375 24.265625 45.996094 "/>
</g>
</g>
</svg>
