<?xml version="1.0" encoding="UTF-8"?>
<svg xmlns="http://www.w3.org/2000/svg" xmlns:xlink="http://www.w3.org/1999/xlink" width="39.5pt" height="51.02pt" viewBox="0 0 39.5 51.02" version="1.1">
<defs>
<clipPath id="clip1">
  <path d="M 0 0 L 39.5 0 L 39.5 51.019531 L 0 51.019531 Z M 0 0 "/>
</clipPath>
</defs>
<g id="surface1">
<g clip-path="url(#clip1)" clip-rule="nonzero">
<path style=" stroke:none;fill-rule:nonzero;fill:rgb(100%,39.988708%,39.988708%);fill-opacity:1;" d="M 20.394531 25.628906 L 32.363281 25.628906 L 32.363281 15.027344 L 20.394531 15.027344 Z M 29.125 32.363281 C 27.765625 32.363281 26.660156 33.46875 26.660156 34.828125 C 26.660156 36.1875 27.765625 37.292969 29.125 37.292969 C 30.484375 37.292969 31.59375 36.1875 31.59375 34.828125 C 31.59375 33.46875 30.484375 32.363281 29.125 32.363281 M 35.527344 8.484375 C 34.941406 7.539063 34.121094 6.730469 33.160156 6.15625 C 31.171875 4.886719 27.242188 3.382813 19.753906 3.382813 C 19.382813 3.367188 19.007813 3.359375 18.636719 3.359375 C 15.160156 3.359375 11.75 3.941406 8.46875 5.085938 C 6.625 5.6875 5.027344 6.902344 3.960938 8.507813 C 3.574219 9.148438 3.359375 9.90625 3.355469 10.679688 L 3.355469 35.996094 C 3.355469 38.480469 5.378906 40.503906 7.863281 40.503906 L 31.636719 40.503906 C 34.125 40.503906 36.148438 38.480469 36.148438 35.996094 L 36.148438 10.671875 C 36.140625 9.90625 35.929688 9.148438 35.527344 8.484375 M 26.5625 45.105469 L 12.945313 45.105469 L 12.3125 46.128906 L 27.195313 46.128906 Z M 39.503906 10.671875 L 39.503906 35.996094 C 39.5 40.332031 35.972656 43.863281 31.632813 43.867188 L 30.4375 43.867188 L 35.535156 51.019531 L 30.214844 51.019531 L 28.984375 49.039063 L 10.515625 49.039063 L 9.292969 51.019531 L 3.972656 51.019531 L 9.0625 43.867188 L 7.863281 43.867188 C 3.527344 43.863281 0 40.332031 0 35.992188 L 0 10.671875 C 0.0078125 9.300781 0.382813 7.957031 1.082031 6.78125 C 1.949219 5.363281 3.152344 4.164063 4.566406 3.308594 C 8 1.128906 13.113281 0.0195313 19.753906 0.0195313 C 23.996094 -0.121094 28.210938 0.527344 32.238281 1.949219 C 34.765625 2.808594 36.960938 4.523438 38.414063 6.765625 L 38.421875 6.785156 C 39.121094 7.960938 39.496094 9.304688 39.503906 10.671875 M 13.203125 10.933594 L 26.304688 10.933594 C 26.855469 10.933594 27.378906 10.71875 27.769531 10.328125 C 28.164063 9.933594 28.378906 9.414063 28.378906 8.859375 C 28.382813 8.304688 28.164063 7.78125 27.773438 7.390625 C 27.378906 6.996094 26.855469 6.78125 26.300781 6.78125 L 13.203125 6.78125 C 12.058594 6.78125 11.125 7.714844 11.125 8.859375 C 11.128906 10.003906 12.058594 10.933594 13.203125 10.933594 M 10.378906 32.363281 C 9.019531 32.363281 7.914063 33.46875 7.914063 34.828125 C 7.914063 36.1875 9.019531 37.292969 10.378906 37.292969 C 11.738281 37.292969 12.847656 36.1875 12.847656 34.828125 C 12.847656 33.46875 11.738281 32.363281 10.378906 32.363281 M 7.144531 15.027344 L 18.644531 15.027344 L 18.644531 25.628906 L 7.144531 25.628906 "/>
</g>
</g>
</svg>
