<?xml version="1.0" encoding="UTF-8"?>
<svg xmlns="http://www.w3.org/2000/svg" xmlns:xlink="http://www.w3.org/1999/xlink" width="50pt" height="22.88pt" viewBox="0 0 50 22.88" version="1.1">
<defs>
<clipPath id="clip1">
  <path d="M 0 0 L 50 0 L 50 22.878906 L 0 22.878906 Z M 0 0 "/>
</clipPath>
</defs>
<g id="surface1">
<g clip-path="url(#clip1)" clip-rule="nonzero">
<path style=" stroke:none;fill-rule:nonzero;fill:rgb(100%,40.380859%,40.380859%);fill-opacity:1;" d="M 50 11.328125 C 50.003906 11.804688 49.832031 12.253906 49.515625 12.605469 L 49.449219 12.671875 L 39.792969 22.332031 C 39.425781 22.695313 38.949219 22.878906 38.46875 22.878906 C 37.984375 22.878906 37.507813 22.695313 37.140625 22.332031 L 37.140625 22.328125 C 36.410156 21.601563 36.410156 20.410156 37.140625 19.679688 L 43.574219 13.246094 L 6.425781 13.246094 L 12.859375 19.679688 C 13.585938 20.445313 13.550781 21.632813 12.800781 22.34375 C 12.074219 23.03125 10.941406 23.027344 10.222656 22.34375 L 0.546875 12.671875 C -0.183594 11.941406 -0.183594 10.753906 0.546875 10.023438 L 0.605469 9.964844 L 10.203125 0.546875 C 10.574219 0.191406 11.070313 0.015625 11.546875 0.0195313 C 12.050781 0.03125 12.515625 0.238281 12.863281 0.601563 C 13.566406 1.339844 13.554688 2.492188 12.835938 3.214844 L 6.441406 9.492188 L 43.558594 9.492188 L 37.164063 3.222656 C 36.808594 2.886719 36.605469 2.417969 36.589844 1.917969 C 36.582031 1.417969 36.765625 0.941406 37.109375 0.578125 C 37.453125 0.214844 37.921875 0.0078125 38.421875 -0.00390625 C 38.917969 -0.0195313 39.398438 0.167969 39.761719 0.515625 L 49.4375 10.007813 C 49.796875 10.359375 49.996094 10.828125 50 11.328125 "/>
</g>
</g>
</svg>
