<svg width="12" height="12" viewBox="0 0 12 12" fill="none" xmlns="http://www.w3.org/2000/svg">
<path d="M6.07125 7.26375L9.9375 3.42L8.58 2.05875L4.73625 5.925L4.0575 7.93875L6.075 7.26L6.07125 7.26375ZM10.3612 0.28125L9.375 1.26375L10.7325 2.625L11.7188 1.6425C11.9062 1.455 12 1.23 12 0.96375C12 0.6975 11.9062 0.4725 11.7188 0.285C11.5312 0.09375 11.3063 0 11.04 0C10.7738 0 10.5487 0.09375 10.3612 0.28125ZM0.22125 2.47125C0.075 2.62125 0 2.7975 0 3V11.25C0 11.4525 0.075 11.6287 0.22125 11.7787C0.3675 11.9288 0.54375 12 0.75 12H9C9.2025 12 9.37875 11.925 9.52875 11.7787C9.67875 11.6325 9.75 11.4563 9.75 11.25V5.92875L9 6.67875V11.25H0.75V3H5.32125L6.07125 2.25H0.75C0.5475 2.25 0.37125 2.325 0.22125 2.47125Z" fill="white"/>
</svg>
