<?xml version="1.0" encoding="UTF-8"?>
<svg xmlns="http://www.w3.org/2000/svg" xmlns:xlink="http://www.w3.org/1999/xlink" width="44.52pt" height="50pt" viewBox="0 0 44.52 50" version="1.1">
<defs>
<clipPath id="clip1">
  <path d="M 0 0 L 44.519531 0 L 44.519531 50 L 0 50 Z M 0 0 "/>
</clipPath>
</defs>
<g id="surface1">
<g clip-path="url(#clip1)" clip-rule="nonzero">
<path style=" stroke:none;fill-rule:nonzero;fill:rgb(100%,39.988708%,39.988708%);fill-opacity:1;" d="M 22.257813 3.902344 C 26.507813 3.902344 29.957031 7.347656 29.957031 11.597656 C 29.957031 15.851563 26.507813 19.296875 22.257813 19.296875 C 18.003906 19.296875 14.558594 15.851563 14.558594 11.597656 C 14.558594 7.347656 18.003906 3.898438 22.257813 3.894531 Z M 22.257813 23.179688 C 28.65625 23.179688 33.847656 17.992188 33.847656 11.59375 C 33.851563 5.191406 28.660156 0 22.261719 0 C 15.859375 0 10.667969 5.1875 10.667969 11.589844 L 10.667969 11.59375 C 10.675781 17.988281 15.859375 23.171875 22.257813 23.179688 M 40.636719 46.113281 L 3.890625 46.113281 L 3.890625 37.089844 C 3.871094 34.863281 4.730469 32.71875 6.28125 31.117188 C 7.273438 30.074219 8.660156 29.492188 10.101563 29.515625 C 11.097656 29.542969 14.167969 29.5 17.898438 29.484375 C 23.480469 29.457031 30.519531 29.425781 34.164063 29.425781 C 37.734375 29.421875 40.632813 32.316406 40.636719 35.886719 C 40.636719 36.058594 40.628906 36.230469 40.617188 36.398438 Z M 34.171875 25.53125 C 30.523438 25.53125 23.476563 25.566406 17.882813 25.59375 C 14.171875 25.609375 11.117188 25.621094 10.152344 25.621094 L 10.140625 25.621094 C 7.667969 25.605469 5.292969 26.582031 3.554688 28.335938 C 1.265625 30.671875 -0.0117188 33.816406 0 37.085938 L 0 48.054688 C 0 49.128906 0.871094 50 1.945313 50 L 42.570313 50 C 43.644531 50 44.515625 49.128906 44.515625 48.054688 L 44.515625 36.398438 C 44.765625 30.652344 40.3125 25.792969 34.570313 25.542969 C 34.4375 25.535156 34.304688 25.53125 34.171875 25.53125 "/>
</g>
</g>
</svg>
