<?xml version="1.0" encoding="UTF-8"?>
<svg xmlns="http://www.w3.org/2000/svg" xmlns:xlink="http://www.w3.org/1999/xlink" width="48.73pt" height="50pt" viewBox="0 0 48.73 50" version="1.1">
<g id="surface1">
<path style=" stroke:none;fill-rule:nonzero;fill:rgb(100%,40.380859%,40.380859%);fill-opacity:1;" d="M 24.367188 18.75 C 20.921875 18.75 18.117188 21.554688 18.117188 25 C 18.117188 28.445313 20.921875 31.25 24.367188 31.25 C 27.816406 31.25 30.617188 28.445313 30.617188 25 C 30.617188 21.554688 27.816406 18.75 24.367188 18.75 M 24.367188 34.953125 C 18.878906 34.953125 14.414063 30.488281 14.414063 25 C 14.414063 19.511719 18.878906 15.046875 24.367188 15.046875 C 29.859375 15.046875 34.324219 19.511719 34.324219 25 C 34.324219 30.488281 29.859375 34.953125 24.367188 34.953125 M 20.441406 3.054688 L 20.4375 3.082031 C 20.441406 3.074219 20.441406 3.0625 20.441406 3.054688 M 28.300781 3.085938 C 28.300781 3.09375 28.300781 3.101563 28.304688 3.109375 Z M 8.261719 10.308594 L 8.246094 10.339844 C 8.253906 10.328125 8.257813 10.316406 8.261719 10.308594 M 40.496094 10.347656 C 40.5 10.355469 40.507813 10.363281 40.511719 10.371094 Z M 3.617188 18.347656 L 3.613281 18.359375 C 3.613281 18.355469 3.613281 18.347656 3.617188 18.347656 M 45.304688 32.539063 L 45.316406 32.539063 Z M 8.226563 39.628906 L 8.238281 39.652344 C 8.238281 39.644531 8.230469 39.636719 8.226563 39.628906 M 40.492188 39.660156 C 40.484375 39.671875 40.480469 39.683594 40.472656 39.691406 Z M 20.347656 46.296875 L 28.386719 46.296875 L 29.179688 40.777344 C 29.273438 40.128906 29.703125 39.578125 30.308594 39.328125 C 31.476563 38.847656 32.625 38.183594 33.8125 37.289063 C 34.332031 36.902344 35.015625 36.8125 35.613281 37.054688 L 40.796875 39.136719 L 44.824219 32.164063 L 40.425781 28.726563 C 39.914063 28.328125 39.648438 27.683594 39.730469 27.035156 C 39.835938 26.210938 39.878906 25.601563 39.878906 25 C 39.878906 24.398438 39.835938 23.789063 39.730469 22.964844 C 39.648438 22.316406 39.914063 21.671875 40.425781 21.273438 L 44.824219 17.835938 L 40.796875 10.863281 L 35.613281 12.945313 C 35.007813 13.191406 34.316406 13.09375 33.796875 12.695313 C 32.699219 11.851563 31.527344 11.167969 30.308594 10.671875 C 29.703125 10.421875 29.273438 9.871094 29.179688 9.222656 L 28.386719 3.703125 L 20.347656 3.703125 L 19.558594 9.222656 C 19.464844 9.871094 19.035156 10.421875 18.425781 10.671875 C 17.257813 11.152344 16.113281 11.816406 14.925781 12.710938 C 14.40625 13.097656 13.722656 13.183594 13.125 12.945313 L 7.941406 10.863281 L 3.914063 17.835938 L 8.3125 21.273438 C 8.824219 21.671875 9.089844 22.316406 9.007813 22.964844 C 8.90625 23.761719 8.859375 24.410156 8.859375 25 C 8.859375 25.589844 8.90625 26.238281 9.007813 27.035156 C 9.089844 27.683594 8.824219 28.328125 8.3125 28.726563 L 3.914063 32.164063 L 7.941406 39.136719 L 13.125 37.054688 C 13.730469 36.8125 14.421875 36.90625 14.941406 37.304688 C 16.039063 38.148438 17.210938 38.832031 18.425781 39.328125 C 19.035156 39.578125 19.464844 40.128906 19.558594 40.777344 Z M 20.433594 46.890625 L 20.4375 46.914063 C 20.4375 46.90625 20.4375 46.898438 20.433594 46.890625 M 28.300781 46.917969 C 28.296875 46.925781 28.296875 46.9375 28.296875 46.945313 Z M 29 50 L 19.738281 50 C 18.230469 50 16.953125 48.886719 16.765625 47.40625 L 16.035156 42.316406 C 15.183594 41.902344 14.351563 41.421875 13.554688 40.875 L 8.738281 42.804688 C 7.289063 43.339844 5.710938 42.75 5.011719 41.464844 L 0.40625 33.496094 C -0.328125 32.152344 -0.0117188 30.542969 1.136719 29.636719 L 5.21875 26.441406 C 5.175781 25.929688 5.15625 25.457031 5.15625 25 C 5.15625 24.542969 5.175781 24.070313 5.21875 23.558594 L 1.144531 20.371094 C -0.0351563 19.4375 -0.34375 17.773438 0.414063 16.488281 L 5.035156 8.492188 C 5.726563 7.21875 7.324219 6.640625 8.722656 7.1875 L 13.5625 9.128906 C 14.386719 8.566406 15.207031 8.089844 16.035156 7.6875 L 16.773438 2.5625 C 16.953125 1.113281 18.230469 0 19.738281 0 L 29 0 C 30.507813 0 31.785156 1.113281 31.96875 2.59375 L 32.703125 7.683594 C 33.554688 8.097656 34.382813 8.578125 35.183594 9.128906 L 40 7.195313 C 41.449219 6.664063 43.027344 7.253906 43.726563 8.535156 L 48.332031 16.503906 C 49.066406 17.847656 48.75 19.457031 47.601563 20.363281 L 43.519531 23.558594 C 43.554688 24 43.582031 24.488281 43.582031 25 C 43.582031 25.511719 43.554688 26 43.519531 26.441406 L 47.59375 29.628906 C 48.75 30.542969 49.066406 32.152344 48.355469 33.457031 L 43.703125 41.507813 C 43.007813 42.78125 41.410156 43.359375 40.015625 42.8125 L 35.175781 40.871094 C 34.351563 41.433594 33.53125 41.914063 32.703125 42.3125 L 31.964844 47.4375 C 31.785156 48.886719 30.507813 50 29 50 "/>
</g>
</svg>
