<?xml version="1.0" encoding="UTF-8"?>
<svg xmlns="http://www.w3.org/2000/svg" xmlns:xlink="http://www.w3.org/1999/xlink" width="50.97pt" height="51pt" viewBox="0 0 50.97 51" version="1.1">
<defs>
<clipPath id="clip1">
  <path d="M 0 0 L 50.96875 0 L 50.96875 51 L 0 51 Z M 0 0 "/>
</clipPath>
</defs>
<g id="surface1">
<g clip-path="url(#clip1)" clip-rule="nonzero">
<path style=" stroke:none;fill-rule:nonzero;fill:rgb(100%,39.988708%,39.988708%);fill-opacity:1;" d="M 17.640625 20.714844 L 17.996094 21.066406 L 17.640625 20.714844 C 17.207031 21.148438 16.96875 21.722656 16.96875 22.335938 C 16.96875 22.949219 17.207031 23.523438 17.640625 23.957031 L 24.203125 30.519531 C 24.628906 30.945313 25.203125 31.183594 25.816406 31.183594 C 26.316406 31.183594 26.804688 31.019531 27.199219 30.722656 C 27.484375 30.5 28.59375 29.539063 28.59375 28.628906 L 28.59375 14.667969 C 28.59375 13.410156 27.574219 12.390625 26.316406 12.390625 C 25.058594 12.390625 24.035156 13.410156 24.035156 14.667969 L 24.035156 23.867188 L 20.882813 20.714844 C 19.988281 19.820313 18.535156 19.820313 17.640625 20.714844 M 20.046875 1.738281 L 20.046875 13.515625 C 20.046875 14.566406 19.019531 15.421875 17.753906 15.421875 C 16.488281 15.421875 15.460938 14.566406 15.460938 13.515625 L 15.460938 7.183594 C 5.851563 12.4375 1.882813 24.5 6.621094 34.472656 C 9.015625 39.511719 13.230469 43.320313 18.488281 45.191406 C 23.746094 47.0625 29.417969 46.773438 34.457031 44.378906 C 39.488281 41.988281 43.292969 37.773438 45.167969 32.511719 C 47.039063 27.246094 46.753906 21.578125 44.363281 16.542969 C 41.355469 10.210938 35.414063 5.832031 28.472656 4.832031 L 27.832031 4.738281 L 27.832031 0.117188 L 28.671875 0.222656 C 41.382813 1.828125 50.96875 12.703125 50.972656 25.515625 C 50.972656 39.566406 39.539063 51 25.488281 51 C 11.433594 51 0 39.566406 0 25.515625 C 0 18.707031 2.652344 12.304688 7.464844 7.492188 C 8.515625 6.4375 9.664063 5.472656 10.882813 4.617188 L 6.949219 4.617188 C 5.683594 4.617188 4.652344 3.585938 4.652344 2.320313 C 4.652344 1.054688 5.683594 0.0273438 6.949219 0.0273438 L 17.425781 0.0273438 C 17.457031 0.015625 17.617188 0.00390625 17.769531 0.00390625 C 18.546875 -0.046875 19.328125 0.339844 19.785156 1.042969 "/>
</g>
</g>
</svg>
