<?xml version="1.0" encoding="UTF-8"?>
<svg xmlns="http://www.w3.org/2000/svg" xmlns:xlink="http://www.w3.org/1999/xlink" width="50pt" height="44.61pt" viewBox="0 0 50 44.61" version="1.1">
<defs>
<clipPath id="clip1">
  <path d="M 0 0 L 50 0 L 50 44.609375 L 0 44.609375 Z M 0 0 "/>
</clipPath>
</defs>
<g id="surface1">
<g clip-path="url(#clip1)" clip-rule="nonzero">
<path style=" stroke:none;fill-rule:nonzero;fill:rgb(100%,40.380859%,40.380859%);fill-opacity:1;" d="M 25 31.304688 C 23.550781 31.304688 22.378906 32.480469 22.378906 33.929688 C 22.378906 35.378906 23.550781 36.550781 25 36.550781 C 26.449219 36.550781 27.621094 35.378906 27.621094 33.929688 C 27.621094 32.480469 26.449219 31.304688 25 31.304688 M 25 28.25 C 23.558594 28.25 22.378906 27.070313 22.378906 25.625 L 22.378906 18.378906 C 22.378906 16.9375 23.558594 15.757813 25 15.757813 C 26.441406 15.757813 27.621094 16.9375 27.621094 18.378906 L 27.621094 25.625 C 27.621094 27.070313 26.441406 28.25 25 28.25 M 25 0 C 23.234375 0 21.472656 0.875 20.460938 2.617188 L 0.710938 36.742188 C -1.308594 40.230469 1.210938 44.609375 5.25 44.609375 L 44.75 44.609375 C 48.789063 44.609375 51.308594 40.230469 49.289063 36.742188 L 29.539063 2.617188 C 28.527344 0.875 26.765625 0 25 0 M 25 4 C 25.265625 4 25.761719 4.082031 26.078125 4.621094 L 45.828125 38.746094 C 46.136719 39.285156 45.960938 39.753906 45.824219 39.988281 C 45.691406 40.21875 45.371094 40.609375 44.75 40.609375 L 5.25 40.609375 C 4.625 40.609375 4.308594 40.21875 4.175781 39.988281 C 4.039063 39.753906 3.863281 39.285156 4.171875 38.746094 L 23.925781 4.621094 C 24.234375 4.082031 24.730469 4 25 4 "/>
</g>
</g>
</svg>
