<?xml version="1.0" encoding="UTF-8"?>
<svg xmlns="http://www.w3.org/2000/svg" xmlns:xlink="http://www.w3.org/1999/xlink" width="50pt" height="50pt" viewBox="0 0 50 50" version="1.1">
<g id="surface1">
<path style=" stroke:none;fill-rule:nonzero;fill:rgb(100%,100%,100%);fill-opacity:1;" d="M 13.671875 31.476563 L 32.746094 12.332031 L 37.648438 17.234375 L 18.546875 36.34375 L 13.679688 36.34375 Z M 37.980469 7.082031 L 42.890625 11.992188 L 40.074219 14.808594 L 35.171875 9.90625 Z M 11.957031 39.777344 L 19.25 39.777344 C 19.703125 39.777344 20.140625 39.597656 20.460938 39.277344 L 46.527344 13.214844 C 47.199219 12.542969 47.199219 11.460938 46.527344 10.789063 L 39.191406 3.449219 C 38.867188 3.128906 38.429688 2.949219 37.976563 2.949219 C 37.519531 2.949219 37.082031 3.132813 36.761719 3.453125 L 10.746094 29.558594 C 10.421875 29.878906 10.242188 30.316406 10.242188 30.769531 L 10.242188 38.058594 C 10.246094 39.007813 11.011719 39.773438 11.957031 39.777344 M 50 25 L 50 42.714844 C 49.996094 46.726563 46.726563 49.996094 42.710938 50 L 7.285156 50 C 3.273438 49.996094 0.00390625 46.726563 0 42.714844 L 0 7.285156 C 0.00390625 3.273438 3.273438 0.0078125 7.285156 0 L 25 0 C 26.152344 0 27.089844 0.9375 27.089844 2.089844 C 27.089844 3.242188 26.152344 4.179688 25 4.179688 L 7.285156 4.179688 C 5.574219 4.183594 4.183594 5.574219 4.183594 7.285156 L 4.183594 42.714844 C 4.183594 44.425781 5.574219 45.816406 7.285156 45.816406 L 42.710938 45.816406 C 44.421875 45.816406 45.816406 44.425781 45.816406 42.714844 L 45.816406 25 C 45.816406 23.847656 46.757813 22.910156 47.910156 22.910156 C 49.0625 22.910156 50 23.847656 50 25 "/>
</g>
</svg>
