<?xml version="1.0" encoding="UTF-8"?>
<svg xmlns="http://www.w3.org/2000/svg" xmlns:xlink="http://www.w3.org/1999/xlink" width="50pt" height="47.73pt" viewBox="0 0 50 47.73" version="1.1">
<g id="surface1">
<path style=" stroke:none;fill-rule:nonzero;fill:rgb(100%,39.988708%,39.988708%);fill-opacity:1;" d="M 5.421875 19.851563 L 14.5625 28.761719 C 14.96875 29.15625 15.152344 29.726563 15.058594 30.285156 L 12.898438 42.867188 L 24.199219 36.925781 C 24.699219 36.660156 25.300781 36.660156 25.800781 36.925781 L 37.101563 42.867188 L 34.941406 30.285156 C 34.847656 29.726563 35.03125 29.15625 35.4375 28.761719 L 44.578125 19.851563 L 31.945313 18.015625 C 31.390625 17.933594 30.902344 17.582031 25 5.625 L 19.351563 17.074219 C 19.101563 17.582031 18.617188 17.9375 18.054688 18.019531 Z M 10.613281 47.730469 C 9.664063 47.730469 8.894531 46.960938 8.890625 46.011719 C 8.890625 45.914063 8.898438 45.816406 8.914063 45.71875 L 11.511719 30.589844 L 0.519531 19.863281 C -0.160156 19.195313 -0.175781 18.105469 0.488281 17.425781 C 0.753906 17.15625 1.097656 16.980469 1.472656 16.925781 L 16.664063 14.714844 L 23.457031 0.953125 C 23.746094 0.367188 24.347656 -0.00390625 25 -0.00390625 C 25.65625 -0.00390625 26.253906 0.367188 26.546875 0.953125 L 33.335938 14.714844 L 48.527344 16.925781 C 49.46875 17.0625 50.121094 17.9375 49.980469 18.878906 C 49.925781 19.253906 49.75 19.597656 49.480469 19.863281 L 38.488281 30.574219 L 41.082031 45.703125 C 41.242188 46.644531 40.613281 47.53125 39.675781 47.691406 C 39.300781 47.753906 38.917969 47.695313 38.582031 47.519531 L 25 40.375 L 11.414063 47.519531 C 11.167969 47.65625 10.894531 47.730469 10.613281 47.730469 "/>
</g>
</svg>
