<?xml version="1.0" encoding="UTF-8"?>
<svg xmlns="http://www.w3.org/2000/svg" xmlns:xlink="http://www.w3.org/1999/xlink" width="37.96pt" height="50pt" viewBox="0 0 37.96 50" version="1.1">
<g id="surface1">
<path style=" stroke:none;fill-rule:nonzero;fill:rgb(100%,39.988708%,39.988708%);fill-opacity:1;" d="M 33.742188 23.707031 C 33.050781 25.894531 32.089844 27.984375 30.878906 29.933594 C 29.425781 32.078125 22.878906 39.558594 18.820313 44.757813 L 5.96875 27.847656 L 5.886719 27.699219 C 5.277344 26.652344 4.777344 25.542969 4.398438 24.390625 C 3.8125 22.59375 3.503906 20.71875 3.492188 18.832031 C 3.5 10.363281 10.363281 3.5 18.832031 3.492188 C 26.800781 3.539063 33.488281 9.515625 34.421875 17.429688 C 34.566406 19.546875 34.335938 21.671875 33.742188 23.707031 Z M 37.898438 17.070313 C 36.871094 7.328125 28.628906 -0.0507813 18.832031 0 C 8.4375 0.0117188 0.0117188 8.4375 0 18.832031 C 0.0117188 21.078125 0.371094 23.308594 1.070313 25.445313 C 1.519531 26.824219 2.113281 28.152344 2.839844 29.410156 L 2.917969 29.554688 C 2.917969 29.558594 2.925781 29.566406 2.925781 29.570313 L 17.273438 49.117188 C 17.582031 49.660156 18.15625 49.996094 18.777344 50 L 18.792969 50 C 19.410156 50 19.984375 49.671875 20.296875 49.140625 C 20.425781 48.917969 33.207031 32.851563 33.84375 31.785156 C 35.246094 29.535156 36.347656 27.109375 37.121094 24.574219 C 37.828125 22.140625 38.089844 19.597656 37.898438 17.070313 M 18.832031 24.242188 C 16 24.242188 13.707031 21.949219 13.707031 19.117188 C 13.707031 16.285156 16.003906 13.992188 18.835938 13.992188 C 21.664063 13.992188 23.957031 16.285156 23.957031 19.117188 C 23.957031 21.949219 21.664063 24.242188 18.832031 24.242188 M 18.832031 10.492188 C 14.074219 10.492188 10.214844 14.347656 10.214844 19.109375 C 10.214844 23.871094 14.074219 27.730469 18.832031 27.730469 C 23.59375 27.730469 27.453125 23.871094 27.453125 19.109375 C 27.445313 14.351563 23.589844 10.496094 18.832031 10.492188 "/>
</g>
</svg>
