<?xml version="1.0" encoding="UTF-8"?>
<svg xmlns="http://www.w3.org/2000/svg" xmlns:xlink="http://www.w3.org/1999/xlink" width="50pt" height="12.56pt" viewBox="0 0 50 12.56" version="1.1">
<defs>
<clipPath id="clip1">
  <path d="M 0 0 L 50 0 L 50 12.558594 L 0 12.558594 Z M 0 0 "/>
</clipPath>
</defs>
<g id="surface1">
<g clip-path="url(#clip1)" clip-rule="nonzero">
<path style=" stroke:none;fill-rule:nonzero;fill:rgb(100%,39.988708%,39.988708%);fill-opacity:1;" d="M 30.476563 5.457031 C 30.476563 6.101563 30.777344 6.386719 31 6.386719 C 31.226563 6.386719 31.511719 6.046875 31.777344 5.183594 C 31.90625 4.757813 32.003906 4.273438 32.058594 3.800781 C 31.078125 3.925781 30.476563 4.769531 30.476563 5.457031 M 37.175781 5.917969 L 38.769531 5.917969 L 38.769531 4.886719 L 37.175781 4.886719 Z M 44.277344 3.105469 L 43.875 2.964844 C 43.71875 3.363281 43.433594 3.910156 43.207031 4.246094 L 43.539063 4.382813 C 43.769531 4.046875 44.058594 3.542969 44.277344 3.105469 M 44.210938 4.601563 L 42.523438 4.601563 L 42.523438 2.78125 L 42.109375 2.78125 L 42.109375 4.601563 L 40.453125 4.601563 L 40.453125 4.980469 L 43.8125 4.980469 L 43.8125 5.730469 L 40.621094 5.730469 L 40.621094 6.101563 L 43.8125 6.101563 L 43.8125 6.902344 L 40.351563 6.902344 L 40.351563 7.28125 L 43.8125 7.28125 L 43.8125 7.507813 L 44.210938 7.507813 Z M 39.527344 6.941406 L 36.421875 6.941406 L 36.421875 7.300781 L 39.527344 7.300781 Z M 35.976563 5.558594 C 36.1875 5.503906 36.402344 5.433594 36.613281 5.367188 L 36.558594 5.015625 C 36.363281 5.074219 36.167969 5.136719 35.976563 5.191406 L 35.976563 4.183594 L 36.601563 4.183594 L 36.601563 3.820313 L 35.976563 3.820313 L 35.976563 2.789063 L 35.597656 2.789063 L 35.597656 3.820313 L 34.871094 3.820313 L 34.871094 4.183594 L 35.597656 4.183594 L 35.597656 5.292969 C 35.300781 5.375 35.027344 5.449219 34.808594 5.503906 L 34.921875 5.875 L 35.597656 5.671875 L 35.597656 7.015625 C 35.597656 7.089844 35.574219 7.113281 35.5 7.113281 C 35.441406 7.113281 35.214844 7.121094 34.96875 7.109375 C 35.019531 7.214844 35.074219 7.371094 35.085938 7.46875 C 35.445313 7.46875 35.65625 7.457031 35.785156 7.394531 C 35.925781 7.339844 35.976563 7.234375 35.976563 7.015625 Z M 34.277344 5.292969 C 34.277344 4.257813 33.511719 3.410156 32.3125 3.410156 C 31.0625 3.410156 30.070313 4.382813 30.070313 5.492188 C 30.070313 6.335938 30.53125 6.863281 30.984375 6.863281 C 31.460938 6.863281 31.867188 6.320313 32.183594 5.269531 C 32.324219 4.789063 32.421875 4.273438 32.488281 3.796875 C 33.355469 3.871094 33.847656 4.503906 33.847656 5.28125 C 33.847656 6.164063 33.207031 6.648438 32.550781 6.796875 C 32.425781 6.820313 32.273438 6.847656 32.113281 6.855469 L 32.347656 7.246094 C 33.570313 7.085938 34.277344 6.367188 34.277344 5.292969 M 29.476563 5.734375 L 28.945313 5.734375 L 28.945313 5.089844 L 27.324219 5.089844 L 27.324219 4.726563 L 28.863281 4.726563 L 28.863281 3.816406 L 27.324219 3.816406 L 27.324219 3.519531 L 29.378906 3.519531 L 29.378906 3.203125 L 27.324219 3.203125 L 27.324219 2.789063 L 26.941406 2.789063 L 26.941406 3.203125 L 24.921875 3.203125 L 24.921875 3.519531 L 26.941406 3.519531 L 26.941406 3.816406 L 25.460938 3.816406 L 25.460938 4.726563 L 26.941406 4.726563 L 26.941406 5.089844 L 25.316406 5.089844 L 25.316406 5.375 L 26.941406 5.375 L 26.941406 5.734375 L 24.824219 5.734375 L 24.824219 6.039063 L 26.941406 6.039063 L 26.941406 6.429688 L 25.269531 6.429688 L 25.269531 6.722656 L 26.941406 6.722656 L 26.941406 7.078125 C 26.941406 7.167969 26.910156 7.199219 26.808594 7.203125 C 26.722656 7.203125 26.414063 7.207031 26.101563 7.199219 C 26.152344 7.285156 26.214844 7.425781 26.234375 7.523438 C 26.664063 7.523438 26.933594 7.519531 27.09375 7.460938 C 27.25 7.40625 27.324219 7.316406 27.324219 7.078125 L 27.324219 6.722656 L 28.5625 6.722656 L 28.5625 6.957031 L 28.945313 6.957031 L 28.945313 6.039063 L 29.476563 6.039063 Z M 24.410156 4.417969 L 22.929688 4.417969 L 22.929688 2.867188 L 22.542969 2.867188 L 22.542969 4.417969 L 21.074219 4.417969 L 21.074219 4.789063 L 22.542969 4.789063 L 22.542969 6.925781 L 21.199219 6.925781 L 21.199219 7.296875 L 24.320313 7.296875 L 24.320313 6.925781 L 22.929688 6.925781 L 22.929688 4.789063 L 24.410156 4.789063 Z M 20.796875 4.019531 C 21.007813 3.667969 21.199219 3.289063 21.351563 2.914063 L 20.984375 2.800781 C 20.671875 3.605469 20.136719 4.394531 19.582031 4.902344 C 19.660156 4.992188 19.777344 5.183594 19.8125 5.273438 C 20.027344 5.078125 20.226563 4.839844 20.417969 4.582031 L 20.417969 7.5 L 20.796875 7.5 Z M 19.308594 4.308594 C 19.0625 4.101563 18.503906 3.75 18.140625 3.558594 L 17.953125 3.875 C 18.28125 4.050781 18.847656 4.394531 19.101563 4.640625 Z M 18.886719 5.972656 C 18.886719 5.363281 18.347656 4.957031 17.601563 4.957031 C 17.269531 4.957031 16.867188 5.015625 16.480469 5.140625 L 16.480469 4.96875 C 16.480469 4.761719 16.484375 4.519531 16.492188 4.277344 C 16.863281 4.234375 17.257813 4.167969 17.554688 4.101563 L 17.550781 3.691406 C 17.261719 3.78125 16.875 3.855469 16.5 3.898438 C 16.507813 3.671875 16.511719 3.472656 16.519531 3.347656 C 16.523438 3.226563 16.535156 3.089844 16.542969 2.996094 L 16.09375 2.996094 C 16.113281 3.082031 16.125 3.253906 16.125 3.355469 C 16.125 3.449219 16.121094 3.671875 16.113281 3.941406 C 15.972656 3.953125 15.839844 3.957031 15.722656 3.957031 C 15.535156 3.957031 15.347656 3.953125 15.070313 3.914063 L 15.078125 4.308594 C 15.277344 4.328125 15.5 4.335938 15.730469 4.335938 C 15.839844 4.335938 15.96875 4.328125 16.109375 4.320313 C 16.101563 4.546875 16.101563 4.785156 16.101563 4.992188 L 16.101563 5.28125 C 15.515625 5.53125 14.980469 5.976563 14.980469 6.398438 C 14.980469 6.855469 15.648438 7.246094 16.050781 7.246094 C 16.324219 7.246094 16.507813 7.09375 16.507813 6.621094 C 16.507813 6.398438 16.496094 5.945313 16.484375 5.511719 C 16.851563 5.382813 17.214844 5.3125 17.597656 5.3125 C 18.082031 5.3125 18.476563 5.542969 18.476563 5.976563 C 18.476563 6.453125 18.070313 6.695313 17.617188 6.777344 C 17.421875 6.820313 17.210938 6.816406 17.019531 6.816406 L 17.164063 7.222656 C 17.339844 7.21875 17.566406 7.207031 17.792969 7.15625 C 18.496094 6.984375 18.886719 6.59375 18.886719 5.972656 M 14.195313 5.292969 C 14.195313 4.257813 13.429688 3.410156 12.230469 3.410156 C 10.976563 3.410156 9.984375 4.382813 9.984375 5.492188 C 9.984375 6.335938 10.445313 6.863281 10.902344 6.863281 C 11.375 6.863281 11.785156 6.320313 12.097656 5.269531 C 12.238281 4.789063 12.335938 4.273438 12.40625 3.796875 C 13.273438 3.871094 13.765625 4.503906 13.765625 5.28125 C 13.765625 6.164063 13.125 6.648438 12.464844 6.796875 C 12.34375 6.820313 12.1875 6.847656 12.027344 6.855469 L 12.265625 7.246094 C 13.484375 7.085938 14.195313 6.367188 14.195313 5.292969 M 9.113281 7.039063 L 9.109375 6.59375 C 8.722656 6.710938 8.066406 6.789063 7.355469 6.789063 C 6.539063 6.789063 6.144531 6.519531 6.144531 6.136719 C 6.144531 5.945313 6.1875 5.761719 6.25 5.554688 L 5.828125 5.511719 C 5.78125 5.726563 5.722656 5.964844 5.722656 6.230469 C 5.722656 6.871094 6.328125 7.214844 7.367188 7.214844 C 8.09375 7.214844 8.746094 7.136719 9.113281 7.039063 M 6.039063 3.910156 C 6.449219 3.945313 6.882813 3.96875 7.394531 3.96875 C 7.863281 3.96875 8.425781 3.929688 8.773438 3.90625 L 8.773438 3.480469 C 8.40625 3.519531 7.882813 3.554688 7.394531 3.554688 C 6.882813 3.554688 6.410156 3.53125 6.039063 3.484375 Z M 36.804688 6.277344 L 39.148438 6.277344 L 39.148438 3.15625 L 36.804688 3.15625 Z M 40.382813 3.152344 C 40.652344 3.511719 40.929688 4.015625 41.039063 4.34375 L 41.40625 4.183594 C 41.289063 3.859375 41.007813 3.375 40.71875 3.011719 Z M 50 5.171875 C 50 8.027344 47.683594 10.34375 44.828125 10.34375 L 11.039063 10.34375 L 11.191406 12.558594 L 7.355469 10.34375 L 5.171875 10.34375 C 2.316406 10.34375 0 8.027344 0 5.171875 C 0 2.3125 2.316406 0 5.171875 0 L 44.828125 0 C 47.683594 0 50 2.3125 50 5.171875 M 37.175781 4.523438 L 38.769531 4.523438 L 38.769531 3.515625 L 37.175781 3.515625 Z M 10.394531 5.457031 C 10.394531 6.101563 10.695313 6.386719 10.917969 6.386719 C 11.144531 6.386719 11.425781 6.046875 11.691406 5.183594 C 11.820313 4.757813 11.917969 4.273438 11.976563 3.800781 C 10.992188 3.925781 10.394531 4.769531 10.394531 5.457031 M 15.390625 6.382813 C 15.390625 6.613281 15.742188 6.816406 15.945313 6.816406 C 16.0625 6.816406 16.125 6.726563 16.125 6.566406 C 16.125 6.382813 16.113281 6.035156 16.109375 5.664063 C 15.695313 5.859375 15.390625 6.148438 15.390625 6.382813 M 27.324219 6.429688 L 28.5625 6.429688 L 28.5625 6.039063 L 27.324219 6.039063 Z M 27.324219 5.734375 L 28.5625 5.734375 L 28.5625 5.375 L 27.324219 5.375 Z M 25.828125 4.457031 L 26.941406 4.457031 L 26.941406 4.085938 L 25.828125 4.085938 Z M 28.480469 4.457031 L 27.324219 4.457031 L 27.324219 4.085938 L 28.480469 4.085938 Z M 28.480469 4.457031 "/>
</g>
</g>
</svg>
