<?xml version="1.0" encoding="UTF-8"?>
<svg xmlns="http://www.w3.org/2000/svg" xmlns:xlink="http://www.w3.org/1999/xlink" width="50pt" height="50pt" viewBox="0 0 50 50" version="1.1">
<g id="surface1">
<path style=" stroke:none;fill-rule:nonzero;fill:rgb(100%,40.380859%,40.380859%);fill-opacity:1;" d="M 25 18.847656 C 26.449219 18.847656 27.621094 17.675781 27.621094 16.226563 C 27.621094 14.777344 26.449219 13.601563 25 13.601563 C 23.550781 13.601563 22.378906 14.777344 22.378906 16.226563 C 22.378906 17.675781 23.550781 18.847656 25 18.847656 M 25 21.90625 C 26.441406 21.90625 27.621094 23.085938 27.621094 24.527344 L 27.621094 33.773438 C 27.621094 35.214844 26.441406 36.398438 25 36.398438 C 23.558594 36.398438 22.378906 35.214844 22.378906 33.773438 L 22.378906 24.527344 C 22.378906 23.085938 23.558594 21.90625 25 21.90625 M 25 0 C 11.199219 0 0 11.199219 0 25 C 0 38.800781 11.199219 50 25 50 C 38.800781 50 50 38.800781 50 25 C 50 11.199219 38.800781 0 25 0 M 25 4 C 36.578125 4 46 13.421875 46 25 C 46 36.578125 36.578125 46 25 46 C 13.421875 46 4 36.578125 4 25 C 4 13.421875 13.421875 4 25 4 "/>
</g>
</svg>
