<?xml version="1.0" encoding="UTF-8"?>
<svg xmlns="http://www.w3.org/2000/svg" xmlns:xlink="http://www.w3.org/1999/xlink" width="50pt" height="45.17pt" viewBox="0 0 50 45.17" version="1.1">
<g id="surface1">
<path style=" stroke:none;fill-rule:nonzero;fill:rgb(100%,39.988708%,39.988708%);fill-opacity:1;" d="M 46.21875 40.765625 C 46.214844 41.113281 45.933594 41.390625 45.589844 41.394531 L 40.464844 41.394531 L 40.464844 13.242188 L 45.589844 13.242188 C 45.933594 13.25 46.214844 13.527344 46.21875 13.875 Z M 3.777344 40.765625 L 3.777344 13.875 C 3.78125 13.527344 4.0625 13.25 4.40625 13.242188 L 9.34375 13.242188 L 9.34375 41.394531 L 4.40625 41.394531 C 4.0625 41.390625 3.785156 41.113281 3.777344 40.769531 Z M 17.742188 4.414063 C 17.746094 4.066406 18.027344 3.785156 18.375 3.78125 L 31.609375 3.78125 C 31.957031 3.785156 32.234375 4.066406 32.238281 4.414063 L 32.238281 9.457031 L 17.738281 9.457031 Z M 36.675781 41.386719 L 13.125 41.386719 L 13.125 13.234375 L 36.675781 13.234375 Z M 45.589844 9.457031 L 36.027344 9.457031 L 36.027344 4.414063 C 36.027344 1.976563 34.050781 0.00390625 31.617188 0 L 18.382813 0 C 15.945313 0.00390625 13.972656 1.976563 13.972656 4.414063 L 13.972656 9.457031 L 4.410156 9.457031 C 1.976563 9.457031 0 11.429688 0 13.867188 L 0 40.757813 C 0.00390625 43.195313 1.976563 45.167969 4.410156 45.171875 L 45.589844 45.171875 C 48.023438 45.167969 49.996094 43.195313 50 40.757813 L 50 13.867188 C 49.992188 11.433594 48.023438 9.460938 45.589844 9.457031 "/>
</g>
</svg>
