<?xml version="1.0" encoding="UTF-8"?>
<svg xmlns="http://www.w3.org/2000/svg" xmlns:xlink="http://www.w3.org/1999/xlink" width="50pt" height="37.85pt" viewBox="0 0 50 37.85" version="1.1">
<g id="surface1">
<path style=" stroke:none;fill-rule:nonzero;fill:rgb(100%,40.380859%,40.380859%);fill-opacity:1;" d="M 45.476563 28.949219 C 45.476563 30.378906 44.15625 31.425781 42.746094 31.175781 C 41.039063 30.859375 39.269531 30.722656 37.515625 30.722656 C 33.652344 30.722656 28.082031 32.199219 25.011719 34.132813 L 25.011719 7.960938 C 28.082031 6.03125 33.652344 4.550781 37.515625 4.550781 C 39.609375 4.550781 41.679688 4.753906 43.65625 5.1875 C 44.703125 5.414063 45.476563 6.347656 45.476563 7.414063 Z M 37.515625 0.00390625 C 33.082031 0.00390625 28.308594 0.914063 25.011719 3.414063 C 21.714844 0.914063 16.9375 0.00390625 12.503906 0.00390625 C 9.210938 0.00390625 5.707031 0.503906 2.773438 1.800781 C 1.113281 2.550781 0 4.164063 0 6.007813 L 0 31.65625 C 0 34.609375 2.773438 36.792969 5.640625 36.066406 C 7.867188 35.496094 10.230469 35.246094 12.503906 35.246094 C 16.054688 35.246094 19.828125 35.839844 22.875 37.339844 C 24.238281 38.019531 25.785156 38.019531 27.125 37.339844 C 30.171875 35.816406 33.949219 35.246094 37.492188 35.246094 C 39.769531 35.246094 42.132813 35.496094 44.359375 36.066406 C 47.226563 36.816406 50 34.632813 50 31.65625 L 50 6.007813 C 50 4.164063 48.886719 2.550781 47.226563 1.800781 C 44.316406 0.503906 40.8125 0.00390625 37.515625 0.00390625 "/>
</g>
</svg>
