<?xml version="1.0" encoding="UTF-8"?>
<svg xmlns="http://www.w3.org/2000/svg" xmlns:xlink="http://www.w3.org/1999/xlink" width="116pt" height="29.14pt" viewBox="0 0 116 29.14" version="1.1">
<g id="surface1">
<path style=" stroke:none;fill-rule:nonzero;fill:rgb(100%,39.988708%,39.988708%);fill-opacity:1;" d="M 70.710938 12.660156 C 70.710938 14.15625 71.40625 14.816406 71.921875 14.816406 C 72.449219 14.816406 73.109375 14.027344 73.71875 12.023438 C 74.019531 11.039063 74.246094 9.914063 74.378906 8.820313 C 72.101563 9.109375 70.710938 11.0625 70.710938 12.660156 M 86.246094 13.726563 L 89.941406 13.726563 L 89.941406 11.339844 L 86.246094 11.339844 Z M 102.722656 7.203125 L 101.785156 6.878906 C 101.425781 7.800781 100.765625 9.074219 100.238281 9.851563 L 101.007813 10.164063 C 101.546875 9.386719 102.21875 8.222656 102.722656 7.203125 M 102.566406 10.679688 L 98.65625 10.679688 L 98.65625 6.460938 L 97.695313 6.460938 L 97.695313 10.679688 L 93.847656 10.679688 L 93.847656 11.554688 L 101.644531 11.554688 L 101.644531 13.296875 L 94.242188 13.296875 L 94.242188 14.15625 L 101.644531 14.15625 L 101.644531 16.015625 L 93.617188 16.015625 L 93.617188 16.890625 L 101.644531 16.890625 L 101.644531 17.421875 L 102.566406 17.421875 Z M 91.707031 16.101563 L 84.496094 16.101563 L 84.496094 16.941406 L 91.707031 16.941406 Z M 83.464844 12.898438 C 83.957031 12.765625 84.449219 12.609375 84.941406 12.457031 L 84.820313 11.640625 C 84.363281 11.769531 83.910156 11.917969 83.464844 12.046875 L 83.464844 9.710938 L 84.917969 9.710938 L 84.917969 8.867188 L 83.464844 8.867188 L 83.464844 6.472656 L 82.589844 6.472656 L 82.589844 8.867188 L 80.898438 8.867188 L 80.898438 9.710938 L 82.589844 9.710938 L 82.589844 12.273438 C 81.894531 12.46875 81.257813 12.648438 80.753906 12.765625 L 81.019531 13.632813 L 82.589844 13.164063 L 82.589844 16.28125 C 82.589844 16.449219 82.53125 16.507813 82.363281 16.507813 C 82.21875 16.507813 81.703125 16.519531 81.128906 16.496094 C 81.246094 16.738281 81.367188 17.097656 81.402344 17.324219 C 82.230469 17.324219 82.722656 17.300781 83.023438 17.15625 C 83.347656 17.023438 83.464844 16.785156 83.464844 16.28125 Z M 79.523438 12.273438 C 79.523438 9.878906 77.75 7.910156 74.96875 7.910156 C 72.066406 7.910156 69.761719 10.164063 69.761719 12.742188 C 69.761719 14.699219 70.832031 15.921875 71.886719 15.921875 C 72.988281 15.921875 73.9375 14.664063 74.667969 12.226563 C 74.992188 11.113281 75.21875 9.914063 75.375 8.808594 C 77.390625 8.976563 78.527344 10.453125 78.527344 12.25 C 78.527344 14.304688 77.042969 15.429688 75.519531 15.765625 C 75.230469 15.824219 74.871094 15.886719 74.5 15.910156 L 75.050781 16.808594 C 77.882813 16.4375 79.523438 14.769531 79.523438 12.273438 M 68.390625 13.304688 L 67.152344 13.304688 L 67.152344 11.808594 L 63.386719 11.808594 L 63.386719 10.96875 L 66.960938 10.96875 L 66.960938 8.855469 L 63.386719 8.855469 L 63.386719 8.164063 L 68.160156 8.164063 L 68.160156 7.429688 L 63.386719 7.429688 L 63.386719 6.472656 L 62.5 6.472656 L 62.5 7.429688 L 57.820313 7.429688 L 57.820313 8.164063 L 62.5 8.164063 L 62.5 8.855469 L 59.070313 8.855469 L 59.070313 10.96875 L 62.5 10.96875 L 62.5 11.808594 L 58.734375 11.808594 L 58.734375 12.46875 L 62.5 12.46875 L 62.5 13.304688 L 57.59375 13.304688 L 57.59375 14.015625 L 62.5 14.015625 L 62.5 14.914063 L 58.625 14.914063 L 58.625 15.597656 L 62.5 15.597656 L 62.5 16.425781 C 62.5 16.628906 62.429688 16.699219 62.199219 16.714844 C 61.996094 16.714844 61.277344 16.722656 60.558594 16.699219 C 60.675781 16.90625 60.820313 17.226563 60.867188 17.457031 C 61.863281 17.457031 62.488281 17.445313 62.859375 17.3125 C 63.21875 17.179688 63.386719 16.976563 63.386719 16.425781 L 63.386719 15.597656 L 66.265625 15.597656 L 66.265625 16.136719 L 67.152344 16.136719 L 67.152344 14.015625 L 68.390625 14.015625 Z M 56.628906 10.25 L 53.199219 10.25 L 53.199219 6.648438 L 52.296875 6.648438 L 52.296875 10.25 L 48.894531 10.25 L 48.894531 11.113281 L 52.296875 11.113281 L 52.296875 16.066406 L 49.179688 16.066406 L 49.179688 16.929688 L 56.425781 16.929688 L 56.425781 16.066406 L 53.199219 16.066406 L 53.199219 11.113281 L 56.628906 11.113281 Z M 48.246094 9.324219 C 48.738281 8.511719 49.179688 7.632813 49.539063 6.757813 L 48.6875 6.492188 C 47.957031 8.363281 46.722656 10.199219 45.425781 11.375 C 45.605469 11.582031 45.882813 12.023438 45.96875 12.238281 C 46.457031 11.78125 46.925781 11.230469 47.371094 10.632813 L 47.371094 17.394531 L 48.246094 17.394531 Z M 44.796875 9.996094 C 44.222656 9.515625 42.925781 8.699219 42.085938 8.257813 L 41.652344 8.988281 C 42.410156 9.398438 43.730469 10.199219 44.316406 10.765625 Z M 43.8125 13.859375 C 43.8125 12.441406 42.566406 11.496094 40.839844 11.496094 C 40.058594 11.496094 39.136719 11.640625 38.234375 11.929688 L 38.234375 11.53125 C 38.234375 11.050781 38.246094 10.488281 38.261719 9.925781 C 39.125 9.828125 40.035156 9.671875 40.730469 9.515625 L 40.71875 8.570313 C 40.046875 8.773438 39.148438 8.941406 38.285156 9.050781 C 38.296875 8.519531 38.308594 8.054688 38.320313 7.765625 C 38.332031 7.488281 38.355469 7.167969 38.378906 6.949219 L 37.335938 6.949219 C 37.386719 7.152344 37.410156 7.550781 37.410156 7.789063 C 37.410156 8.007813 37.398438 8.519531 37.386719 9.144531 C 37.0625 9.167969 36.75 9.179688 36.472656 9.179688 C 36.042969 9.179688 35.609375 9.167969 34.960938 9.085938 L 34.984375 9.996094 C 35.441406 10.046875 35.957031 10.054688 36.496094 10.054688 C 36.75 10.054688 37.046875 10.046875 37.371094 10.019531 C 37.359375 10.546875 37.359375 11.097656 37.359375 11.582031 L 37.359375 12.25 C 35.992188 12.839844 34.757813 13.871094 34.757813 14.84375 C 34.757813 15.910156 36.304688 16.808594 37.242188 16.808594 C 37.875 16.808594 38.296875 16.460938 38.296875 15.355469 C 38.296875 14.84375 38.273438 13.800781 38.246094 12.792969 C 39.101563 12.492188 39.9375 12.324219 40.828125 12.324219 C 41.953125 12.324219 42.867188 12.863281 42.867188 13.871094 C 42.867188 14.972656 41.917969 15.539063 40.875 15.730469 C 40.417969 15.824219 39.925781 15.8125 39.484375 15.8125 L 39.820313 16.761719 C 40.226563 16.75 40.753906 16.722656 41.28125 16.605469 C 42.914063 16.210938 43.8125 15.296875 43.8125 13.859375 M 32.929688 12.273438 C 32.929688 9.878906 31.152344 7.910156 28.371094 7.910156 C 25.46875 7.910156 23.167969 10.164063 23.167969 12.742188 C 23.167969 14.699219 24.234375 15.921875 25.289063 15.921875 C 26.394531 15.921875 27.339844 14.664063 28.070313 12.226563 C 28.394531 11.113281 28.625 9.914063 28.777344 8.808594 C 30.792969 8.976563 31.933594 10.453125 31.933594 12.25 C 31.933594 14.304688 30.445313 15.429688 28.921875 15.765625 C 28.636719 15.824219 28.277344 15.886719 27.902344 15.910156 L 28.457031 16.808594 C 31.285156 16.4375 32.929688 14.769531 32.929688 12.273438 M 21.144531 16.328125 L 21.132813 15.296875 C 20.234375 15.574219 18.710938 15.753906 17.066406 15.753906 C 15.171875 15.753906 14.261719 15.128906 14.261719 14.242188 C 14.261719 13.800781 14.355469 13.367188 14.5 12.886719 L 13.519531 12.792969 C 13.410156 13.28125 13.277344 13.835938 13.277344 14.457031 C 13.277344 15.945313 14.679688 16.738281 17.09375 16.738281 C 18.78125 16.738281 20.292969 16.554688 21.144531 16.328125 M 14.007813 9.074219 C 14.957031 9.15625 15.964844 9.207031 17.152344 9.207031 C 18.242188 9.207031 19.550781 9.121094 20.355469 9.0625 L 20.355469 8.078125 C 19.503906 8.164063 18.289063 8.246094 17.152344 8.246094 C 15.964844 8.246094 14.871094 8.195313 14.007813 8.089844 Z M 85.386719 14.566406 L 90.832031 14.566406 L 90.832031 7.320313 L 85.386719 7.320313 Z M 93.691406 7.308594 C 94.3125 8.148438 94.960938 9.3125 95.214844 10.082031 L 96.066406 9.710938 C 95.789063 8.953125 95.140625 7.824219 94.46875 6.984375 Z M 116 11.996094 C 116 18.625 110.628906 23.996094 104 23.996094 L 25.609375 23.996094 L 25.960938 29.140625 L 17.0625 23.996094 L 12 23.996094 C 5.375 23.996094 0 18.625 0 11.996094 C 0 5.367188 5.375 -0.00390625 12 -0.00390625 L 104 -0.00390625 C 110.628906 -0.00390625 116 5.367188 116 11.996094 M 86.246094 10.5 L 89.941406 10.5 L 89.941406 8.164063 L 86.246094 8.164063 Z M 24.113281 12.660156 C 24.113281 14.15625 24.808594 14.816406 25.324219 14.816406 C 25.851563 14.816406 26.511719 14.027344 27.125 12.023438 C 27.425781 11.039063 27.652344 9.914063 27.785156 8.820313 C 25.503906 9.109375 24.113281 11.0625 24.113281 12.660156 M 35.707031 14.804688 C 35.707031 15.347656 36.519531 15.8125 36.988281 15.8125 C 37.265625 15.8125 37.410156 15.609375 37.410156 15.238281 C 37.410156 14.804688 37.386719 14.003906 37.371094 13.136719 C 36.414063 13.59375 35.707031 14.265625 35.707031 14.804688 M 63.386719 14.914063 L 66.265625 14.914063 L 66.265625 14.015625 L 63.386719 14.015625 Z M 63.386719 13.304688 L 66.265625 13.304688 L 66.265625 12.46875 L 63.386719 12.46875 Z M 59.921875 10.34375 L 62.5 10.34375 L 62.5 9.480469 L 59.921875 9.480469 Z M 66.074219 10.34375 L 63.386719 10.34375 L 63.386719 9.480469 L 66.074219 9.480469 Z M 66.074219 10.34375 "/>
</g>
</svg>
